<svg version="1.1" id="Layer_1" xmlns="http://www.w3.org/2000/svg" xmlns:xlink="http://www.w3.org/1999/xlink" x="0px" y="0px"
	 width="100%" viewBox="0 0 640 640" enable-background="new 0 0 640 640" xml:space="preserve">
<path fill="#D581A1" opacity="1.000000" stroke="none" 
	d="
M641.000000,292.000000 
	C641.000000,311.020905 641.000000,330.041779 640.661621,349.224121 
	C638.297729,352.701599 638.471252,354.140930 641.000000,355.000000 
	C641.000000,355.444458 641.000000,355.888885 640.711792,356.328552 
	C636.350464,358.665375 639.201782,362.093597 638.856384,365.082581 
	C637.776672,374.427429 636.382446,383.765991 634.471680,392.974518 
	C633.131531,399.432983 630.747986,405.674988 628.476074,412.046570 
	C623.333496,418.285278 621.126648,425.357483 621.032288,433.533691 
	C618.046387,440.962524 615.079895,448.002899 611.836182,454.962891 
	C610.596497,455.811981 609.320740,456.574982 608.723572,457.698608 
	C605.478333,463.804382 602.350586,469.974701 599.312500,476.186462 
	C598.786194,477.262451 598.883606,478.643494 598.791870,480.181763 
	C598.534912,480.989014 598.179138,481.498108 597.477295,482.039185 
	C596.334778,482.597687 595.299133,482.951813 594.776794,483.676086 
	C584.221863,498.310547 574.352478,513.494934 563.016907,527.493042 
	C554.200012,538.380859 543.555542,547.786255 533.755981,557.882202 
	C530.483276,561.253906 527.311462,564.723572 524.085693,568.111633 
	C524.077881,568.074768 524.151550,568.090698 523.790894,568.122803 
	C521.983215,569.484436 520.536255,570.813965 519.081543,572.106934 
	C519.073792,572.070312 519.147034,572.085693 518.786804,572.119446 
	C514.647644,575.150146 510.868652,578.147095 507.083252,581.107239 
	C507.076843,581.070435 507.149567,581.087036 506.777283,581.081299 
	C502.299774,584.098999 498.194550,587.122375 494.082092,590.109192 
	C494.074860,590.072571 494.148010,590.087463 493.767395,590.081299 
	C491.714691,590.744202 489.982727,591.294373 488.379852,592.100952 
	C472.195496,600.244934 456.390594,609.274597 439.751312,616.341980 
	C426.067993,622.153870 411.401154,625.650024 397.170929,630.174683 
	C394.748779,630.944824 391.535126,630.844360 391.639587,634.901367 
	C388.397278,635.249756 385.504242,635.402405 382.652710,635.831116 
	C378.673004,636.429382 374.454559,638.438232 370.834595,637.627502 
	C366.837250,636.732117 365.923157,638.098511 365.000000,641.000000 
	C335.645782,641.000000 306.291534,641.000000 276.529175,640.606812 
	C275.765747,637.591736 274.856079,636.672852 271.815552,637.474854 
	C269.103210,638.190430 265.303558,638.597473 263.256714,637.232178 
	C258.941772,634.353943 254.742004,633.802307 249.976334,634.445801 
	C248.810242,632.934082 247.845001,631.223511 246.465668,630.768616 
	C242.243195,629.376099 237.834946,628.560852 233.546204,627.353271 
	C199.805359,617.852661 168.743210,602.663452 139.710922,583.150391 
	C138.276199,582.186096 136.481369,581.757629 134.890228,581.073181 
	C134.926254,581.066650 134.916962,581.139282 134.876404,580.791504 
	C129.174149,576.322876 123.512466,572.202087 117.887070,568.076050 
	C117.923363,568.070862 117.913422,568.143494 117.877350,567.794189 
	C113.395020,563.291626 108.912949,559.175903 104.508568,554.978577 
	C82.969856,534.452698 64.141830,511.724335 48.569031,486.323792 
	C47.675301,484.866058 45.652237,484.100739 44.083229,482.696014 
	C43.662853,481.616760 43.314003,480.854645 43.088486,479.786011 
	C43.306843,479.163971 43.577568,478.762787 43.471539,478.545349 
	C39.724224,470.860596 35.952301,463.187622 32.080093,455.565704 
	C32.009136,455.426025 30.684294,455.923340 29.649380,455.981201 
	C28.123283,452.332611 27.175756,448.691986 25.593903,445.351776 
	C23.306684,440.522186 20.082239,436.098358 18.135149,431.155731 
	C15.906260,425.497772 14.510018,419.494202 12.992849,413.579010 
	C11.792176,408.897766 11.098785,404.086517 9.902410,399.403961 
	C9.198381,396.648438 7.563576,394.107269 7.022981,391.337830 
	C5.419199,383.121704 4.166855,374.837250 2.683304,366.596375 
	C2.631027,366.306000 1.583608,366.194733 1.000000,366.000000 
	C1.000000,336.312439 1.000000,306.624878 1.335499,276.404541 
	C1.919550,275.603210 2.168100,275.334656 2.416653,275.066132 
	C1.944437,275.044098 1.472218,275.022064 1.000000,275.000000 
	C1.000000,273.611115 1.000000,272.222198 1.288416,270.762878 
	C5.818721,269.513214 5.009590,266.109406 4.904787,263.050049 
	C4.869306,262.014313 4.292327,260.885315 4.555606,259.969299 
	C6.269834,254.004944 8.282361,248.124573 9.923952,242.141708 
	C11.025600,238.126678 11.346750,233.883698 12.597886,229.926315 
	C15.347920,221.227905 18.216955,212.549133 21.517393,204.048721 
	C23.928490,197.838806 27.105301,191.926193 30.084347,186.116959 
	C30.969967,186.245316 32.184929,186.381500 32.384480,185.994324 
	C36.659409,177.700073 40.820583,169.347183 45.247780,160.775314 
	C56.649151,145.048126 67.198112,129.060638 79.167091,114.218254 
	C87.880112,103.413483 98.484077,94.136269 108.210815,84.144753 
	C111.498306,80.767776 114.680992,77.288765 117.918579,73.892807 
	C117.925583,73.929222 117.852631,73.915855 118.212364,73.883865 
	C124.019836,69.520676 129.467575,65.189484 134.920471,60.894768 
	C134.925629,60.931252 134.853439,60.916370 135.225586,60.921570 
	C136.525909,60.618107 137.538681,60.456627 138.369781,59.979015 
	C154.321594,50.812031 169.954651,41.035053 186.267029,32.565685 
	C204.107498,23.302942 223.201187,17.029245 242.750961,12.222485 
	C246.912140,11.199368 250.914948,9.532140 255.343735,8.084972 
	C256.419006,7.991061 257.141235,7.973841 258.064941,7.844683 
	C258.538422,7.582504 258.775818,7.389661 259.375122,7.077359 
	C264.720825,5.983740 269.702087,5.092757 274.592102,3.844338 
	C275.572845,3.593952 276.206390,1.983406 277.000000,1.000000 
	C306.020905,1.000000 335.041779,1.000000 364.708740,1.366992 
	C365.666107,2.399153 365.864929,3.554800 366.305603,3.655873 
	C372.837677,5.153956 379.401825,6.512239 386.151367,8.190520 
	C392.163483,9.997814 398.022766,11.380535 403.794922,13.062225 
	C429.835938,20.649141 454.935791,30.502007 478.472870,44.139721 
	C480.677826,45.417301 483.361359,45.868916 485.974213,46.851357 
	C486.125732,46.998699 486.401794,47.318787 486.384155,47.578125 
	C486.909790,48.235447 487.453064,48.633430 488.191193,49.319214 
	C490.306824,50.376263 492.227539,51.145512 494.111816,51.921368 
	C494.075378,51.927975 494.088348,51.855038 494.167969,52.192009 
	C495.212677,52.989456 496.177734,53.449928 497.105835,53.920097 
	C497.068848,53.929794 497.088165,53.855801 497.167755,54.192276 
	C498.211243,54.987545 499.175110,55.446339 500.100677,55.917877 
	C500.062347,55.930622 500.089783,55.854649 500.153625,56.193886 
	C502.524780,57.990479 504.832062,59.447838 507.101349,60.919937 
	C507.063354,60.934681 507.089111,60.857346 507.130310,61.205498 
	C510.827362,64.006737 514.483215,66.459831 518.101929,68.923523 
	C518.064880,68.934135 518.086182,68.859993 518.126282,69.212326 
	C520.160767,71.014023 522.155090,72.463379 524.112793,73.920181 
	C524.076050,73.927635 524.091614,73.854370 524.133545,74.214432 
	C525.836853,75.697540 527.498230,76.820587 529.382446,78.004379 
	C529.890869,78.242821 530.041992,78.499657 530.102905,79.189651 
	C532.483337,81.344162 534.819458,83.144646 537.444885,85.061523 
	C538.842834,86.396088 539.951416,87.614250 541.101685,89.182236 
	C545.805908,93.994873 550.468506,98.457703 555.094421,102.931335 
	C555.057800,102.942146 555.079224,102.868858 555.116211,103.226585 
	C558.769226,108.225777 562.243408,112.988266 566.058289,117.460060 
	C568.114624,119.870476 570.754517,121.783119 573.093628,123.934219 
	C573.056213,123.948120 573.083435,123.872986 573.079834,124.244606 
	C575.152771,127.911926 577.217285,131.215256 579.308044,134.501907 
	C586.201111,145.337646 593.103577,156.167374 600.151917,167.314926 
	C606.250488,180.406281 612.173828,193.194275 618.184082,205.941269 
	C618.873596,207.403717 620.048828,208.637161 621.092834,210.317108 
	C622.083923,212.004333 622.981079,213.351257 623.921509,214.783630 
	C623.964783,214.869064 623.860107,215.029495 623.451294,215.294312 
	C624.970520,221.367920 626.898621,227.176682 629.038696,233.336182 
	C629.834717,234.161301 630.820984,234.550797 630.941650,235.122910 
	C632.424438,242.150146 633.430969,249.296341 635.260315,256.227112 
	C637.404114,264.348694 638.427612,272.467438 638.097595,280.860382 
	C637.958008,284.410065 638.792480,288.003662 639.303711,291.560089 
	C639.335815,291.783417 640.410400,291.856842 641.000000,292.000000 
M224.957169,557.552185 
	C272.093079,576.675476 320.791321,581.388428 370.512939,571.439331 
	C436.299438,558.275757 488.604248,523.512878 528.510681,469.766174 
	C530.663208,466.867035 530.835632,464.386047 529.475037,461.086670 
	C514.092834,423.785156 490.954834,392.219269 458.982697,367.597961 
	C405.338470,326.287170 344.890442,311.761475 278.300598,323.959229 
	C240.126389,330.951904 206.376160,347.660339 176.722595,372.647278 
	C148.149521,396.723755 126.876709,426.119080 112.701920,460.684113 
	C111.435303,463.772705 110.922943,466.311005 113.211388,469.417328 
	C142.239777,508.820099 178.881973,538.537048 224.957169,557.552185 
M234.397903,122.925774 
	C222.045868,143.496262 217.082169,165.701874 220.446289,189.479660 
	C224.120956,215.452164 236.157852,236.996338 256.318634,253.830078 
	C278.466583,272.323059 304.217712,279.761658 332.644287,276.627167 
	C360.203674,273.588257 382.844696,260.698151 400.314758,239.105637 
	C415.919067,219.819183 423.501923,197.484634 422.642578,172.853622 
	C421.631866,143.883698 410.189819,119.169113 388.307434,99.923454 
	C364.569824,79.046104 336.688751,70.592979 305.421906,75.521629 
	C274.963745,80.322800 251.485947,96.374283 234.397903,122.925774 
z"/>
<path fill="#000000" opacity="1.000000" stroke="none" 
	d="
M623.860107,215.029495 
	C623.860107,215.029495 623.964783,214.869064 623.984009,214.551270 
	C623.388123,212.799881 622.772949,211.366302 622.111084,209.540161 
	C621.196838,206.091614 620.590149,202.930267 619.407104,200.001740 
	C617.007385,194.061127 614.556885,188.113022 611.644165,182.414993 
	C608.280823,175.835571 604.396667,169.522400 600.662720,162.735931 
	C598.346863,158.565002 596.123718,154.741684 593.859802,150.942703 
	C592.674622,148.953934 591.483459,146.962906 590.176880,145.053711 
	C588.497620,142.599838 586.874817,140.072754 584.916260,137.851776 
	C580.876221,133.270294 578.771667,127.047989 573.083435,123.872986 
	C573.083435,123.872986 573.056213,123.948120 573.039185,123.566086 
	C572.460327,122.067345 572.078308,120.802711 571.303833,119.860832 
	C568.657776,116.643089 565.982056,113.435425 563.109558,110.422356 
	C560.577637,107.766472 557.766846,105.376335 555.079224,102.868858 
	C555.079224,102.868858 555.057800,102.942146 555.037964,102.578568 
	C550.365479,97.754128 545.712769,93.293274 541.060059,88.832420 
	C539.951416,87.614250 538.842834,86.396088 537.377625,84.711212 
	C534.700195,82.441536 532.379395,80.638580 530.058533,78.835632 
	C530.041992,78.499657 529.890869,78.242821 529.314697,77.648384 
	C527.380005,76.105896 525.735779,74.980133 524.091614,73.854370 
	C524.091614,73.854370 524.076050,73.927635 524.120056,73.620972 
	C522.138123,71.829536 520.112122,70.344765 518.086182,68.859993 
	C518.086182,68.859993 518.064880,68.934135 518.044922,68.562698 
	C514.379700,65.746620 510.734406,63.301987 507.089111,60.857349 
	C507.089111,60.857346 507.063354,60.934681 506.966217,60.588486 
	C504.609314,58.779739 502.349548,57.317196 500.089783,55.854649 
	C500.089783,55.854649 500.062347,55.930622 499.962036,55.620773 
	C498.937195,54.825882 498.012665,54.340839 497.088165,53.855797 
	C497.088165,53.855801 497.068848,53.929794 497.053711,53.582825 
	C497.418213,49.863316 494.901581,52.678913 494.088348,51.855038 
	C494.088348,51.855038 494.075378,51.927975 494.159180,51.586761 
	C494.342468,51.115067 494.480255,50.997353 494.529388,50.850075 
	C494.568909,50.731609 494.550446,50.498032 494.473877,50.450481 
	C491.652161,48.697495 488.820648,46.960239 485.613861,45.136375 
	C483.747437,44.468834 482.195007,44.008217 480.777954,43.282990 
	C471.108948,38.334442 461.632416,32.972843 451.771179,28.447514 
	C442.453125,24.171448 432.782440,20.644730 423.186737,16.999346 
	C416.604553,14.498792 409.998169,11.910667 403.192108,10.198190 
	C397.608582,8.793311 391.714691,8.621816 385.958374,7.903607 
	C379.401825,6.512239 372.837677,5.153956 366.305603,3.655873 
	C365.864929,3.554800 365.666107,2.399153 365.177399,1.366992 
	C456.928986,1.000000 548.857971,1.000000 641.000000,1.000000 
	C641.000000,97.687454 641.000000,194.375076 641.000000,291.531342 
	C640.410400,291.856842 639.335815,291.783417 639.303711,291.560089 
	C638.792480,288.003662 637.958008,284.410065 638.097595,280.860382 
	C638.427612,272.467438 637.404114,264.348694 635.260315,256.227112 
	C633.430969,249.296341 632.424438,242.150146 630.941650,235.122910 
	C630.820984,234.550797 629.834717,234.161301 629.113525,232.923004 
	C627.270935,226.449203 625.565491,220.739349 623.860107,215.029495 
z"/>
<path fill="#000000" opacity="1.000000" stroke="none" 
	d="
M597.823303,482.007202 
	C598.179138,481.498108 598.534912,480.989014 599.021606,479.899597 
	C600.566650,477.791840 602.217896,476.417877 603.332825,474.696533 
	C604.606506,472.730194 605.447693,470.474365 606.397095,468.309357 
	C608.330750,463.899719 610.211060,459.466644 612.113342,455.043243 
	C615.079895,448.002899 618.046387,440.962524 621.424072,433.482971 
	C624.166931,426.033691 626.498657,419.023682 628.830322,412.013672 
	C630.747986,405.674988 633.131531,399.432983 634.471680,392.974518 
	C636.382446,383.765991 637.776672,374.427429 638.856384,365.082581 
	C639.201782,362.093597 636.350464,358.665375 640.711792,356.661865 
	C641.000000,451.592682 641.000000,546.185364 641.000000,641.000000 
	C549.312561,641.000000 457.624939,641.000000 365.468658,641.000000 
	C365.923157,638.098511 366.837250,636.732117 370.834595,637.627502 
	C374.454559,638.438232 378.673004,636.429382 382.652710,635.831116 
	C385.504242,635.402405 388.397278,635.249756 392.026428,634.834351 
	C398.239899,632.820374 403.633240,630.716492 409.175629,629.134949 
	C414.886841,627.505310 420.826172,626.657104 426.502899,624.931335 
	C429.559235,624.002197 432.111206,621.307556 435.175049,620.530090 
	C443.253021,618.480408 450.674988,615.169617 457.880615,611.055054 
	C462.371063,608.490967 467.426208,606.930908 471.994080,604.483765 
	C479.119598,600.666382 486.065735,596.510803 493.024384,592.391235 
	C493.638397,592.027832 493.784576,590.874146 494.148010,590.087463 
	C494.148010,590.087463 494.074860,590.072571 494.420776,590.060669 
	C495.222443,590.202454 495.856262,590.631287 496.107330,590.468811 
	C500.139435,587.859192 504.122772,585.174194 508.117188,582.506348 
	C507.794647,582.033264 507.472107,581.560120 507.149567,581.087036 
	C507.149567,581.087036 507.076843,581.070435 507.467529,581.054749 
	C510.800079,579.255920 513.838989,577.609314 516.635986,575.622192 
	C517.748779,574.831482 518.325989,573.287048 519.147034,572.085693 
	C519.147034,572.085693 519.073792,572.070312 519.406006,572.052734 
	C522.992798,572.715881 523.761414,570.614990 524.151550,568.090698 
	C524.151550,568.090698 524.077881,568.074768 524.451050,568.059937 
	C525.589233,567.828674 526.575012,567.845398 527.086365,567.361084 
	C535.394409,559.492432 543.832947,551.747314 551.846069,543.585632 
	C558.746948,536.556763 565.260559,529.134827 571.723267,521.693848 
	C575.162598,517.733826 578.121338,513.357361 581.314697,509.182404 
	C584.645203,504.828064 588.318115,500.694092 591.246582,496.085785 
	C594.015564,491.728455 597.485779,487.556152 597.823303,482.007202 
z"/>
<path fill="#000000" opacity="1.000000" stroke="none" 
	d="
M29.940786,185.881058 
	C27.105301,191.926193 23.928490,197.838806 21.517393,204.048721 
	C18.216955,212.549133 15.347920,221.227905 12.597886,229.926315 
	C11.346750,233.883698 11.025600,238.126678 9.923952,242.141708 
	C8.282361,248.124573 6.269834,254.004944 4.555606,259.969299 
	C4.292327,260.885315 4.869306,262.014313 4.904787,263.050049 
	C5.009590,266.109406 5.818721,269.513214 1.288416,270.346252 
	C1.000000,180.405334 1.000000,90.810684 1.000000,1.000000 
	C92.687447,1.000000 184.375061,1.000000 276.531342,1.000000 
	C276.206390,1.983406 275.572845,3.593952 274.592102,3.844338 
	C269.702087,5.092757 264.720825,5.983740 259.111206,7.052794 
	C258.255005,7.388928 258.059265,7.672774 257.863495,7.956620 
	C257.141235,7.973841 256.419006,7.991061 254.889954,8.013376 
	C247.861816,7.895830 241.612305,7.490084 236.268570,11.766499 
	C235.338531,12.510786 233.872543,12.840095 232.631409,12.901317 
	C220.900787,13.479959 210.914673,19.478146 200.274918,23.369043 
	C194.541138,25.465866 188.905899,28.107759 183.695862,31.276060 
	C179.344116,33.922417 174.138077,34.433006 170.087112,37.864544 
	C167.066788,40.423027 163.164658,41.963024 159.595490,43.843185 
	C157.214920,45.097225 154.610733,45.954948 152.315613,47.337090 
	C147.627090,50.160561 142.829453,52.912941 138.622604,56.360641 
	C137.318253,57.429619 133.453369,57.344879 134.853439,60.916370 
	C134.853439,60.916370 134.925629,60.931252 134.537048,60.947777 
	C133.334122,61.008923 132.286591,60.740803 131.741806,61.146984 
	C126.785927,64.841988 121.913277,68.648956 117.067223,72.487480 
	C116.996346,72.543610 117.576385,73.421486 117.852631,73.915848 
	C117.852631,73.915855 117.925583,73.929222 117.557999,73.956718 
	C116.420624,74.204529 115.458282,74.203247 114.910599,74.679169 
	C108.952438,79.856636 102.677101,84.742638 97.233643,90.422485 
	C87.969803,100.088600 79.243515,110.269707 70.284622,120.228363 
	C67.294487,123.552193 63.940479,126.611908 61.356327,130.224121 
	C56.495579,137.018585 52.048759,144.110779 47.485901,151.115707 
	C46.251179,153.011276 45.217548,155.037811 44.029472,157.219223 
	C43.842663,157.706589 43.691013,157.963013 43.350899,158.273651 
	C43.189419,158.343826 43.139389,158.692383 42.870918,158.896088 
	C40.636078,163.307434 38.681149,167.520477 36.692184,171.717407 
	C36.357040,172.424576 35.800804,173.027832 35.473015,173.737457 
	C33.607735,177.775528 31.780777,181.831299 29.940786,185.881058 
z"/>
<path fill="#000000" opacity="1.000000" stroke="none" 
	d="
M249.987793,634.821228 
	C254.742004,633.802307 258.941772,634.353943 263.256714,637.232178 
	C265.303558,638.597473 269.103210,638.190430 271.815552,637.474854 
	C274.856079,636.672852 275.765747,637.591736 276.060486,640.606812 
	C184.406250,641.000000 92.812508,641.000000 1.000000,641.000000 
	C1.000000,549.645874 1.000000,458.291595 1.000000,366.468658 
	C1.583608,366.194733 2.631027,366.306000 2.683304,366.596375 
	C4.166855,374.837250 5.419199,383.121704 7.022981,391.337830 
	C7.563576,394.107269 9.198381,396.648438 9.902410,399.403961 
	C11.098785,404.086517 11.792176,408.897766 12.992849,413.579010 
	C14.510018,419.494202 15.906260,425.497772 18.135149,431.155731 
	C20.082239,436.098358 23.306684,440.522186 25.593903,445.351776 
	C27.175756,448.691986 28.123283,452.332611 29.701916,456.372742 
	C32.625263,462.358704 35.039913,467.895813 37.847702,473.225800 
	C39.162113,475.720886 41.235668,477.816101 42.965164,480.092560 
	C43.314003,480.854645 43.662853,481.616760 44.009323,483.095398 
	C46.977379,488.445862 49.882778,493.123077 52.933067,497.703796 
	C57.841755,505.075500 61.708431,513.038879 68.450508,519.300903 
	C74.825951,525.222473 79.717651,532.707642 85.711647,539.082275 
	C93.331154,547.185608 101.286423,554.986328 109.352295,562.648743 
	C111.766853,564.942566 115.035866,566.336975 117.913422,568.143494 
	C117.913422,568.143494 117.923363,568.070862 117.887596,568.356079 
	C117.802834,569.142029 117.518227,569.854431 117.745270,570.107178 
	C118.769264,571.246826 119.793098,572.499023 121.081062,573.268799 
	C125.634544,575.990112 130.296265,578.530396 134.916962,581.139282 
	C134.916962,581.139282 134.926254,581.066650 134.881805,581.363159 
	C134.958252,582.356873 134.831726,583.428284 135.236557,583.695862 
	C143.530350,589.177612 151.775955,594.747192 160.274109,599.898376 
	C164.378250,602.386047 169.017853,603.975952 173.347183,606.109924 
	C179.063156,608.927429 184.444839,612.893372 190.467239,614.484375 
	C196.286636,616.021729 200.324478,622.022583 207.096695,620.678650 
	C207.583542,620.582031 208.215775,621.702087 208.893311,621.997620 
	C211.625580,623.189026 214.360504,624.402100 217.179642,625.355225 
	C218.629471,625.845398 220.984421,625.227417 221.682404,626.104004 
	C224.902618,630.147827 229.318069,628.578186 233.271606,629.192017 
	C234.359451,629.360901 235.756577,629.611450 236.380325,630.354492 
	C240.035355,634.708557 245.206650,634.111755 249.987793,634.821228 
z"/>
<path fill="#000000" opacity="1.000000" stroke="none" 
	d="
M641.000000,354.583344 
	C638.471252,354.140930 638.297729,352.701599 640.661621,349.692749 
	C641.000000,351.388885 641.000000,352.777802 641.000000,354.583344 
z"/>
<path fill="#000000" opacity="1.000000" stroke="none" 
	d="
M1.000000,275.250000 
	C1.472218,275.022064 1.944437,275.044098 2.416653,275.066132 
	C2.168100,275.334656 1.919550,275.603210 1.335499,275.935852 
	C1.000000,276.000000 1.000000,275.500000 1.000000,275.250000 
z"/>
<path fill="#A44B73" opacity="1.000000" stroke="none" 
	d="
M224.601868,557.406372 
	C178.881973,538.537048 142.239777,508.820099 113.211388,469.417328 
	C110.922943,466.311005 111.435303,463.772705 112.701920,460.684113 
	C126.876709,426.119080 148.149521,396.723755 176.722595,372.647278 
	C206.376160,347.660339 240.126389,330.951904 278.300598,323.959229 
	C344.890442,311.761475 405.338470,326.287170 458.982697,367.597961 
	C490.954834,392.219269 514.092834,423.785156 529.475037,461.086670 
	C530.835632,464.386047 530.663208,466.867035 528.510681,469.766174 
	C488.604248,523.512878 436.299438,558.275757 370.512939,571.439331 
	C320.791321,581.388428 272.093079,576.675476 224.601868,557.406372 
z"/>
<path fill="#A44B73" opacity="1.000000" stroke="none" 
	d="
M234.598297,122.621811 
	C251.485947,96.374283 274.963745,80.322800 305.421906,75.521629 
	C336.688751,70.592979 364.569824,79.046104 388.307434,99.923454 
	C410.189819,119.169113 421.631866,143.883698 422.642578,172.853622 
	C423.501923,197.484634 415.919067,219.819183 400.314758,239.105637 
	C382.844696,260.698151 360.203674,273.588257 332.644287,276.627167 
	C304.217712,279.761658 278.466583,272.323059 256.318634,253.830078 
	C236.157852,236.996338 224.120956,215.452164 220.446289,189.479660 
	C217.082169,165.701874 222.045868,143.496262 234.598297,122.621811 
z"/>
<path fill="#E28AAC" opacity="1.000000" stroke="none" 
	d="
M249.976334,634.445801 
	C245.206650,634.111755 240.035355,634.708557 236.380325,630.354492 
	C235.756577,629.611450 234.359451,629.360901 233.271606,629.192017 
	C229.318069,628.578186 224.902618,630.147827 221.682404,626.104004 
	C220.984421,625.227417 218.629471,625.845398 217.179642,625.355225 
	C214.360504,624.402100 211.625580,623.189026 208.893311,621.997620 
	C208.215775,621.702087 207.583542,620.582031 207.096695,620.678650 
	C200.324478,622.022583 196.286636,616.021729 190.467239,614.484375 
	C184.444839,612.893372 179.063156,608.927429 173.347183,606.109924 
	C169.017853,603.975952 164.378250,602.386047 160.274109,599.898376 
	C151.775955,594.747192 143.530350,589.177612 135.236557,583.695862 
	C134.831726,583.428284 134.958252,582.356873 134.845795,581.369751 
	C136.481369,581.757629 138.276199,582.186096 139.710922,583.150391 
	C168.743210,602.663452 199.805359,617.852661 233.546204,627.353271 
	C237.834946,628.560852 242.243195,629.376099 246.465668,630.768616 
	C247.845001,631.223511 248.810242,632.934082 249.976334,634.445801 
z"/>
<path fill="#DF88AA" opacity="1.000000" stroke="none" 
	d="
M135.225586,60.921570 
	C133.453369,57.344879 137.318253,57.429619 138.622604,56.360641 
	C142.829453,52.912941 147.627090,50.160561 152.315613,47.337090 
	C154.610733,45.954948 157.214920,45.097225 159.595490,43.843185 
	C163.164658,41.963024 167.066788,40.423027 170.087112,37.864544 
	C174.138077,34.433006 179.344116,33.922417 183.695862,31.276060 
	C188.905899,28.107759 194.541138,25.465866 200.274918,23.369043 
	C210.914673,19.478146 220.900787,13.479959 232.631409,12.901317 
	C233.872543,12.840095 235.338531,12.510786 236.268570,11.766499 
	C241.612305,7.490084 247.861816,7.895830 254.536926,8.090068 
	C250.914948,9.532140 246.912140,11.199368 242.750961,12.222485 
	C223.201187,17.029245 204.107498,23.302942 186.267029,32.565685 
	C169.954651,41.035053 154.321594,50.812031 138.369781,59.979015 
	C137.538681,60.456627 136.525909,60.618107 135.225586,60.921570 
z"/>
<path fill="#E28AAC" opacity="1.000000" stroke="none" 
	d="
M117.877357,567.794189 
	C115.035866,566.336975 111.766853,564.942566 109.352295,562.648743 
	C101.286423,554.986328 93.331154,547.185608 85.711647,539.082275 
	C79.717651,532.707642 74.825951,525.222473 68.450508,519.300903 
	C61.708431,513.038879 57.841755,505.075500 52.933067,497.703796 
	C49.882778,493.123077 46.977379,488.445862 44.080853,483.412567 
	C45.652237,484.100739 47.675301,484.866058 48.569031,486.323792 
	C64.141830,511.724335 82.969856,534.452698 104.508568,554.978577 
	C108.912949,559.175903 113.395020,563.291626 117.877357,567.794189 
z"/>
<path fill="#DF88AA" opacity="1.000000" stroke="none" 
	d="
M44.091614,157.004242 
	C45.217548,155.037811 46.251179,153.011276 47.485901,151.115707 
	C52.048759,144.110779 56.495579,137.018585 61.356327,130.224121 
	C63.940479,126.611908 67.294487,123.552193 70.284622,120.228363 
	C79.243515,110.269707 87.969803,100.088600 97.233643,90.422485 
	C102.677101,84.742638 108.952438,79.856636 114.910599,74.679169 
	C115.458282,74.203247 116.420624,74.204529 117.550995,73.920303 
	C114.680992,77.288765 111.498306,80.767776 108.210815,84.144753 
	C98.484077,94.136269 87.880112,103.413483 79.167091,114.218254 
	C67.198112,129.060638 56.649151,145.048126 45.053314,160.456207 
	C44.123062,159.809097 43.631226,159.250748 43.139389,158.692383 
	C43.139389,158.692383 43.189419,158.343826 43.557121,158.306030 
	C43.980419,157.846893 44.036018,157.425568 44.091614,157.004242 
z"/>
<path fill="#DD86A8" opacity="1.000000" stroke="none" 
	d="
M597.477295,482.039185 
	C597.485779,487.556152 594.015564,491.728455 591.246582,496.085785 
	C588.318115,500.694092 584.645203,504.828064 581.314697,509.182404 
	C578.121338,513.357361 575.162598,517.733826 571.723267,521.693848 
	C565.260559,529.134827 558.746948,536.556763 551.846069,543.585632 
	C543.832947,551.747314 535.394409,559.492432 527.086365,567.361084 
	C526.575012,567.845398 525.589233,567.828674 524.458862,568.096802 
	C527.311462,564.723572 530.483276,561.253906 533.755981,557.882202 
	C543.555542,547.786255 554.200012,538.380859 563.016907,527.493042 
	C574.352478,513.494934 584.221863,498.310547 594.776794,483.676086 
	C595.299133,482.951813 596.334778,482.597687 597.477295,482.039185 
z"/>
<path fill="#DD86A8" opacity="1.000000" stroke="none" 
	d="
M493.767395,590.081299 
	C493.784576,590.874146 493.638397,592.027832 493.024384,592.391235 
	C486.065735,596.510803 479.119598,600.666382 471.994080,604.483765 
	C467.426208,606.930908 462.371063,608.490967 457.880615,611.055054 
	C450.674988,615.169617 443.253021,618.480408 435.175049,620.530090 
	C432.111206,621.307556 429.559235,624.002197 426.502899,624.931335 
	C420.826172,626.657104 414.886841,627.505310 409.175629,629.134949 
	C403.633240,630.716492 398.239899,632.820374 392.394226,634.761841 
	C391.535126,630.844360 394.748779,630.944824 397.170929,630.174683 
	C411.401154,625.650024 426.067993,622.153870 439.751312,616.341980 
	C456.390594,609.274597 472.195496,600.244934 488.379852,592.100952 
	C489.982727,591.294373 491.714691,590.744202 493.767395,590.081299 
z"/>
<path fill="#E48AAD" opacity="1.000000" stroke="none" 
	d="
M386.151367,8.190517 
	C391.714691,8.621816 397.608582,8.793311 403.192108,10.198190 
	C409.998169,11.910667 416.604553,14.498792 423.186737,16.999346 
	C432.782440,20.644730 442.453125,24.171448 451.771179,28.447514 
	C461.632416,32.972843 471.108948,38.334442 480.777954,43.282990 
	C482.195007,44.008217 483.747437,44.468834 485.586853,45.384464 
	C485.896576,46.045807 485.858673,46.374794 485.822693,46.704010 
	C483.361359,45.868916 480.677826,45.417301 478.472870,44.139721 
	C454.935791,30.502007 429.835938,20.649141 403.794922,13.062225 
	C398.022766,11.380535 392.163483,9.997814 386.151367,8.190517 
z"/>
<path fill="#DD86A8" opacity="1.000000" stroke="none" 
	d="
M573.079834,124.244606 
	C578.771667,127.047989 580.876221,133.270294 584.916260,137.851776 
	C586.874817,140.072754 588.497620,142.599838 590.176880,145.053711 
	C591.483459,146.962906 592.674622,148.953934 593.859802,150.942703 
	C596.123718,154.741684 598.346863,158.565002 600.530701,162.960876 
	C600.317200,164.695480 600.159790,165.847427 600.002441,166.999390 
	C593.103577,156.167374 586.201111,145.337646 579.308044,134.501907 
	C577.217285,131.215256 575.152771,127.911926 573.079834,124.244606 
z"/>
<path fill="#E28CA9" opacity="1.000000" stroke="none" 
	d="
M600.151917,167.314926 
	C600.159790,165.847427 600.317200,164.695480 600.606567,163.318573 
	C604.396667,169.522400 608.280823,175.835571 611.644165,182.414993 
	C614.556885,188.113022 617.007385,194.061127 619.407104,200.001740 
	C620.590149,202.930267 621.196838,206.091614 621.821411,209.552643 
	C621.385315,209.964050 621.192078,209.970428 620.998901,209.976791 
	C620.048828,208.637161 618.873596,207.403717 618.184082,205.941269 
	C612.173828,193.194275 606.250488,180.406281 600.151917,167.314926 
z"/>
<path fill="#E28CA9" opacity="1.000000" stroke="none" 
	d="
M42.870918,158.896088 
	C43.631226,159.250748 44.123062,159.809097 44.809364,160.686569 
	C40.820583,169.347183 36.659409,177.700073 32.384480,185.994324 
	C32.184929,186.381500 30.969967,186.245316 30.084347,186.116959 
	C31.780777,181.831299 33.607735,177.775528 35.473015,173.737457 
	C35.800804,173.027832 36.357040,172.424576 36.692184,171.717407 
	C38.681149,167.520477 40.636078,163.307434 42.870918,158.896088 
z"/>
<path fill="#E28CA9" opacity="1.000000" stroke="none" 
	d="
M43.088493,479.786011 
	C41.235668,477.816101 39.162113,475.720886 37.847702,473.225800 
	C35.039913,467.895813 32.625263,462.358704 29.997036,456.514954 
	C30.684294,455.923340 32.009136,455.426025 32.080093,455.565704 
	C35.952301,463.187622 39.724224,470.860596 43.471539,478.545349 
	C43.577568,478.762787 43.306843,479.163971 43.088493,479.786011 
z"/>
<path fill="#E28CA9" opacity="1.000000" stroke="none" 
	d="
M611.836182,454.962891 
	C610.211060,459.466644 608.330750,463.899719 606.397095,468.309357 
	C605.447693,470.474365 604.606506,472.730194 603.332825,474.696533 
	C602.217896,476.417877 600.566650,477.791840 598.922668,479.601440 
	C598.883606,478.643494 598.786194,477.262451 599.312500,476.186462 
	C602.350586,469.974701 605.478333,463.804382 608.723572,457.698608 
	C609.320740,456.574982 610.596497,455.811981 611.836182,454.962891 
z"/>
<path fill="#DD86A8" opacity="1.000000" stroke="none" 
	d="
M555.116211,103.226585 
	C557.766846,105.376335 560.577637,107.766472 563.109558,110.422356 
	C565.982056,113.435425 568.657776,116.643089 571.303833,119.860832 
	C572.078308,120.802711 572.460327,122.067345 573.076660,123.552185 
	C570.754517,121.783119 568.114624,119.870476 566.058289,117.460060 
	C562.243408,112.988266 558.769226,108.225777 555.116211,103.226585 
z"/>
<path fill="#E28AAC" opacity="1.000000" stroke="none" 
	d="
M134.876404,580.791504 
	C130.296265,578.530396 125.634544,575.990112 121.081062,573.268799 
	C119.793098,572.499023 118.769264,571.246826 117.745270,570.107178 
	C117.518227,569.854431 117.802834,569.142029 117.851303,568.361267 
	C123.512466,572.202087 129.174149,576.322876 134.876404,580.791504 
z"/>
<path fill="#E48AAD" opacity="1.000000" stroke="none" 
	d="
M628.476013,412.046570 
	C626.498657,419.023682 624.166931,426.033691 621.443420,433.094452 
	C621.126648,425.357483 623.333496,418.285278 628.476013,412.046570 
z"/>
<path fill="#DF88AA" opacity="1.000000" stroke="none" 
	d="
M118.212372,73.883858 
	C117.576385,73.421486 116.996346,72.543610 117.067223,72.487480 
	C121.913277,68.648956 126.785927,64.841988 131.741806,61.146984 
	C132.286591,60.740803 133.334122,61.008923 134.531891,60.911293 
	C129.467575,65.189484 124.019836,69.520676 118.212372,73.883858 
z"/>
<path fill="#DD86A8" opacity="1.000000" stroke="none" 
	d="
M541.101685,89.182236 
	C545.712769,93.293274 550.365479,97.754128 555.074585,102.567757 
	C550.468506,98.457703 545.805908,93.994873 541.101685,89.182236 
z"/>
<path fill="#E48AAD" opacity="1.000000" stroke="none" 
	d="
M623.451294,215.294312 
	C625.565491,220.739349 627.270935,226.449203 628.901550,232.572250 
	C626.898621,227.176682 624.970520,221.367920 623.451294,215.294312 
z"/>
<path fill="#DD86A8" opacity="1.000000" stroke="none" 
	d="
M506.777283,581.081299 
	C507.472107,581.560120 507.794647,582.033264 508.117188,582.506348 
	C504.122772,585.174194 500.139435,587.859192 496.107330,590.468811 
	C495.856262,590.631287 495.222443,590.202454 494.428040,590.097290 
	C498.194550,587.122375 502.299774,584.098999 506.777283,581.081299 
z"/>
<path fill="#DD86A8" opacity="1.000000" stroke="none" 
	d="
M518.786804,572.119446 
	C518.325989,573.287048 517.748779,574.831482 516.635986,575.622192 
	C513.838989,577.609314 510.800079,579.255920 507.473938,581.091553 
	C510.868652,578.147095 514.647644,575.150146 518.786804,572.119446 
z"/>
<path fill="#DD86A8" opacity="1.000000" stroke="none" 
	d="
M507.130310,61.205502 
	C510.734406,63.301987 514.379700,65.746620 518.082031,68.552086 
	C514.483215,66.459831 510.827362,64.006737 507.130310,61.205502 
z"/>
<path fill="#DD86A8" opacity="1.000000" stroke="none" 
	d="
M530.102905,79.189651 
	C532.379395,80.638580 534.700195,82.441536 537.088318,84.594810 
	C534.819458,83.144646 532.483337,81.344162 530.102905,79.189651 
z"/>
<path fill="#DD86A8" opacity="1.000000" stroke="none" 
	d="
M485.974213,46.851353 
	C485.858673,46.374794 485.896576,46.045807 485.963440,45.468956 
	C488.820648,46.960239 491.652161,48.697495 494.473877,50.450481 
	C494.550446,50.498032 494.568909,50.731609 494.529388,50.850075 
	C494.480255,50.997353 494.342468,51.115067 494.195618,51.580154 
	C492.227539,51.145512 490.306824,50.376263 488.133179,49.057709 
	C487.387482,48.111870 486.894623,47.715328 486.401794,47.318787 
	C486.401794,47.318787 486.125732,46.998699 485.974213,46.851353 
z"/>
<path fill="#DD86A8" opacity="1.000000" stroke="none" 
	d="
M518.126282,69.212326 
	C520.112122,70.344765 522.138123,71.829536 524.156738,73.613525 
	C522.155090,72.463379 520.160767,71.014023 518.126282,69.212326 
z"/>
<path fill="#DD86A8" opacity="1.000000" stroke="none" 
	d="
M500.153625,56.193886 
	C502.349548,57.317196 504.609314,58.779739 507.004211,60.573742 
	C504.832062,59.447838 502.524780,57.990479 500.153625,56.193886 
z"/>
<path fill="#DD86A8" opacity="1.000000" stroke="none" 
	d="
M523.790894,568.122803 
	C523.761414,570.614990 522.992798,572.715881 519.413696,572.089355 
	C520.536255,570.813965 521.983215,569.484436 523.790894,568.122803 
z"/>
<path fill="#DD86A8" opacity="1.000000" stroke="none" 
	d="
M524.133545,74.214432 
	C525.735779,74.980133 527.380005,76.105896 529.091858,77.587646 
	C527.498230,76.820587 525.836853,75.697540 524.133545,74.214432 
z"/>
<path fill="#E48AAD" opacity="1.000000" stroke="none" 
	d="
M621.092834,210.317108 
	C621.192078,209.970428 621.385315,209.964050 621.868164,209.945206 
	C622.772949,211.366302 623.388123,212.799881 623.940796,214.465820 
	C622.981079,213.351257 622.083923,212.004333 621.092834,210.317108 
z"/>
<path fill="#DD86A8" opacity="1.000000" stroke="none" 
	d="
M494.167969,52.192009 
	C494.901581,52.678913 497.418213,49.863316 497.090698,53.573128 
	C496.177734,53.449928 495.212677,52.989456 494.167969,52.192009 
z"/>
<path fill="#DD86A8" opacity="1.000000" stroke="none" 
	d="
M497.167755,54.192276 
	C498.012665,54.340839 498.937195,54.825882 500.000366,55.608025 
	C499.175110,55.446339 498.211243,54.987545 497.167755,54.192276 
z"/>
<path fill="#E48AAD" opacity="1.000000" stroke="none" 
	d="
M486.384155,47.578125 
	C486.894623,47.715328 487.387482,48.111870 487.938293,48.769913 
	C487.453064,48.633430 486.909790,48.235447 486.384155,47.578125 
z"/>
<path fill="#DF88AA" opacity="1.000000" stroke="none" 
	d="
M258.064941,7.844682 
	C258.059265,7.672774 258.255005,7.388928 258.714661,7.129649 
	C258.775818,7.389661 258.538422,7.582504 258.064941,7.844682 
z"/>
<path fill="#E28CA9" opacity="1.000000" stroke="none" 
	d="
M44.029469,157.219223 
	C44.036018,157.425568 43.980419,157.846893 43.718597,158.235840 
	C43.691013,157.963013 43.842663,157.706589 44.029469,157.219223 
z"/>
</svg>