<?xml version="1.0" standalone="no"?>
<!DOCTYPE svg PUBLIC "-//W3C//DTD SVG 20010904//EN"
 "http://www.w3.org/TR/2001/REC-SVG-20010904/DTD/svg10.dtd">
<svg version="1.0" xmlns="http://www.w3.org/2000/svg"
 width="640.000000pt" height="640.000000pt" viewBox="0 0 640.000000 640.000000"
 preserveAspectRatio="xMidYMid meet">
<metadata>
Created by potrace 1.16, written by Peter Selinger 2001-2019
</metadata>
<g transform="translate(0.000000,640.000000) scale(0.100000,-0.100000)"
fill="#000000" stroke="none">
<path d="M3045 5656 c-335 -55 -621 -272 -765 -579 -148 -315 -122 -679 70
-975 137 -212 341 -360 596 -434 70 -20 101 -23 259 -22 167 0 187 2 270 27
369 113 640 403 721 772 27 127 23 324 -10 450 -97 372 -378 650 -751 745
-103 26 -283 34 -390 16z"/>
<path d="M2940 3199 c-408 -46 -847 -235 -1165 -501 -286 -238 -528 -564 -651
-878 l-27 -70 74 -97 c96 -127 297 -334 424 -436 343 -277 729 -453 1175 -535
135 -25 164 -26 430 -26 266 0 295 1 430 26 446 82 832 258 1175 535 127 102
328 309 424 435 l74 98 -18 47 c-65 173 -228 445 -360 602 -211 251 -454 442
-750 587 -232 114 -478 186 -727 213 -112 13 -398 12 -508 0z"/>
</g>
</svg>
